# AST/ASF file generated using VICON BodyLanguage
# -----------------------------------------------
:version 1.10
:name VICON
:units
  mass 1.0
  length 0.45
  angle deg
:documentation
   .ast/.asf automatically generated from VICON data using
   VICON BodyBuilder and BodyLanguage model FoxedUp or BRILLIANT.MOD
:root
   order TX TY TZ RX RY RZ
   axis XYZ
   position 0 0 0  
   orientation 0 -0 0 
:bonedata
  begin
     id 1 
     name lhipjoint
     direction 0.515797 -0.759363 0.396637 
     length 2.47888 
     axis 0 -0 0  XYZ
  end
  begin
     id 2 
     name lfemur
     direction 0.34202 -0.939693 0  
     length 6.81885  
     axis 0 -0 20  XYZ
    dof rx ry rz
    limits (-160.0 20.0)
           (-70.0 70.0)
           (-60.0 70.0)
  end
  begin
     id 3 
     name ltibia
     direction 0.342037 -0.939687 0   
     length 7.89258   
     axis 0 -0 20   XYZ
    dof rx
    limits (-10.0 170.0)
  end
  begin
     id 4 
     name lfoot
     direction 0.173497 -0.476678 0.861787   
     length 2.51543   
     axis -90 -1.13533e-015 20   XYZ
    dof rx rz
    limits (-45.0 90.0)
           (-70.0 20.0)
  end
  begin
     id 5 
     name ltoes
     direction 1.53564e-011 -4.21897e-011 1   
     length 1.21388   
     axis -90 -1.13533e-015 20   XYZ
    dof rx
    limits (-90.0 20.0)
  end
  begin
     id 6 
     name rhipjoint
     direction -0.489454 -0.772941 0.403729   
     length 2.43534  
     axis 0 -0 0  XYZ 
  end
  begin
     id 7 
     name rfemur
     direction -0.34202 -0.939693 0   
     length 7.10357   
     axis 0 -0 -20   XYZ
    dof rx ry rz
    limits (-160.0 20.0)
           (-70.0 70.0)
           (-70.0 60.0)
  end
  begin
     id 8 
     name rtibia
     direction -0.34202 -0.939693 0   
     length 9.16127   
     axis 0 -0 -20   XYZ
    dof rx
    limits (-10.0 170.0)
 end
 begin
     id 9 
     name rfoot
     direction -0.270974 -0.748671 0.605033   
     length 1.74894  
     axis -90 1.13533e-015 -20   XYZ
    dof rx rz
    limits (-45.0 90.0)
           (-20.0 70.0)
  end
  begin
     id 10 
     name rtoes
     direction -1.53557e-011 -4.21759e-011 1   
     length 0.787585   
     axis -90 1.13533e-015 -20   XYZ
    dof rx
    limits (-90.0 20.0)
  end
  begin
     id 11 
     name lowerback
     direction -0.0140249 0.999561 0.0260968   
     length 2.16963   
     axis 0 -0 0   XYZ
    dof rx ry rz
    limits (-20.0 45.0)
           (-30.0 30.0)
           (-30.0 30.0)
  end
  begin
     id 12 
     name upperback
     direction 0.00860018 0.999959 -0.002711   
     length 2.1726   
     axis 0 -0 0   XYZ
    dof rx ry rz
    limits (-20.0 45.0)
           (-30.0 30.0)
           (-30.0 30.0)
  end
  begin
     id 13 
     name thorax
     direction 0.015211 0.999782 -0.0143191   
     length 2.17061   
     axis 0 -0 0   XYZ
    dof rx ry rz
    limits (-20.0 45.0)
           (-30.0 30.0)
           (-30.0 30.0)
  end
  begin
     id 14 
     name lowerneck
     direction -0.0140143 0.999447 0.030145   
     length 2.26749   
     axis 0 -0 0   XYZ
    dof rx ry rz
    limits (-20.0 45.0)
           (-30.0 30.0)
           (-30.0 30.0)
  end
  begin
     id 15 
     name upperneck
     direction 0.118062 0.961438 -0.248392   
     length 2.22728   
     axis 0 -0 0   XYZ
    dof rx ry rz
    limits (-20.0 45.0)
           (-30.0 30.0)
           (-30.0 30.0)
  end
  begin
     id 16
     name head
     direction 0.0431885 0.9954 -0.085514  
     length 2.28786  
     axis 0 -0 0   XYZ
    dof rx ry rz
    limits (-20.0 45.0)
           (-30.0 30.0)
           (-30.0 30.0)
  end
  begin
     id 17 
     name lclavicle
     direction 0.912126 0.409548 0.0172323  
     length 4.31571  
     axis 0 -0 0   XYZ
    dof ry rz
    limits (-20.0 10.0)
           (0.0 20.0)
  end
  begin
     id 18 
     name lhumerus
     direction 1 -4.48977e-011 1.93091e-027   
     length 5.13658   
     axis 180 -30 -90   XYZ
    dof rx ry rz
    limits (-60.0 90.0)
           (-90.0 90.0)
           (-90.0 90.0)
  end
  begin
     id 19
     name lradius
     direction 1 -4.48916e-011 6.84018e-027   
     length 3.22473   
     axis 180 -30 -90   XYZ
    dof rx
    limits (-10.0 170.0)
  end
  begin
     id 20
     name lwrist
     direction 1 -4.48987e-011 7.01981e-027   
     length 1.61236   
     axis -4.37994e-015 90 90   XYZ
    dof ry
    limits (-180.0 0.0)
 end
  begin
     id 21 
     name lhand
     direction 1 -4.49037e-011 1.40335e-026   
     length 0.936406   
     axis -8.96029e-015 90 90   XYZ
    dof rx rz
    limits (-90.0 90.0)
           (-45.0 45.0)
  end
  begin
     id 22 
     name lfingers
     direction 1 -4.48886e-011 2.8104e-026   
     length 0.754955   
     axis -1.79203e-014 90 90   XYZ
    dof rx
    limits (0.0 90.0)
  end
  begin
     id 23
     name lthumb
     direction 0.707107 -6.34937e-011 0.707107   
     length 1.08397   
     axis -90 45 -4.48555e-014   XYZ
    dof rx rz
    limits (-45.0 45.0)
           (-45.0 45.0)
  end
  begin
     id 24 
     name rclavicle
     direction -0.947962 0.317997 0.0156638   
     length 4.86918  
     axis 0 -0 0   XYZ 
    dof ry rz
    limits (-10.0 20.0)
           (-20.0 0.0)
  end
  begin
     id 25 
     name rhumerus
     direction -1 -4.48951e-011 2.80534e-018  
     length 5.60911   
     axis 180 30 90   XYZ
    dof rx ry rz
    limits (-90.0 60.0)
           (-90.0 90.0)
           (-90.0 90.0)
  end
  begin
     id 26 
     name rradius
     direction -1 -4.4898e-011 2.11315e-027   
     length 3.38704   
     axis 180 30 90   XYZ
    dof rx
    limits (-10.0 170.0)
  end
  begin
     id 27 
     name rwrist
     direction -1 -4.48933e-011 7.02314e-027   
     length 1.69352   
     axis -4.37994e-015 -90 -90   XYZ
    dof ry
    limits (-180.0 0.0)
  end
  begin
     id 28
     name rhand
     direction -1 -4.48937e-011 1.40458e-026   
     length 0.755878   
     axis -8.96029e-015 -90 -90   XYZ
    dof rx rz
    limits (-90.0 90.0)
           (-45.0 45.0)
  end
  begin
     id 29
     name rfingers
     direction -1 -4.4901e-011 2.80737e-026   
     length 0.609409   
     axis -1.79203e-014 -90 -90   XYZ
    dof rx
    limits (0.0 90.0)
  end
  begin
     id 30
     name rthumb
     direction -0.707107 -6.34968e-011 0.707107   
     length 0.874992   
     axis -90 -45 4.48555e-014   XYZ
    dof rx rz
    limits (-45.0 45.0)
           (-45.0 45.0)
  end
:hierarchy
  begin
    root lhipjoint rhipjoint lowerback
    lhipjoint lfemur
    lfemur ltibia
    ltibia lfoot
    lfoot ltoes
    rhipjoint rfemur
    rfemur rtibia
    rtibia rfoot
    rfoot rtoes
    lowerback upperback
    upperback thorax
    thorax lowerneck lclavicle rclavicle
    lowerneck upperneck
    upperneck head
    lclavicle lhumerus
    lhumerus lradius
    lradius lwrist
    lwrist lhand lthumb
    lhand lfingers
    rclavicle rhumerus
    rhumerus rradius
    rradius rwrist
    rwrist rhand rthumb
    rhand rfingers
  end

#!OML:ASF C:\ViconDB\ViconDB\414\Spring2016\041811\Spring2016.ASF
:FULLY-SPECIFIED
:DEGREES
31
root 11.2746 18.0308 29.1722 -173.847 -13.7884 179.23
lowerback 2.56244 1.08201 -2.77433
upperback 0.961558 1.36151 1.0692
thorax -0.540749 0.668299 2.61149
lowerneck -11.5888 -2.03839 -8.75652
upperneck 20.4184 -4.86157 13.1065
head 8.77409 -2.03634 5.38637
rclavicle 4.87022e-014 2.78299e-015
rhumerus -41.5258 -0.661808 -81.0513
rradius 92.2196
rwrist 19.8015
rhand -40.6198 -12.8981
rfingers 7.12502
rthumb -13.5652 -42.4362
lclavicle 4.87022e-014 2.78299e-015
lhumerus -54.4815 -14.6595 90.1237
lradius 46.0196
lwrist -26.1999
lhand -29.1455 13.6547
lfingers 7.12502
lthumb -2.49226 43.6199
rfemur -18.8534 -12.0574 20.4115
rtibia 33.9001
rfoot -165.902 10.5193
rtoes -17.1649
lfemur -0.692093 -9.8181 -14.4698
ltibia 30.7867
lfoot -14.0912 -10.1189
ltoes -19.4484
32
root 11.2734 18.0276 29.1632 -173.87 -13.6077 179.598
lowerback 2.58974 1.06749 -2.34136
upperback 1.00029 1.35016 1.06932
thorax -0.505868 0.661194 2.36857
lowerneck -11.6457 -1.95556 -8.64861
upperneck 20.3457 -4.759 13.1449
head 8.74598 -1.97357 5.39053
rclavicle -2.58917e-014 2.78299e-015
rhumerus -41.541 -0.583126 -81.4205
rradius 92.0767
rwrist 19.4693
rhand -40.5232 -12.855
rfingers 7.12502
rthumb -13.4721 -42.3993
lclavicle -2.58917e-014 2.78299e-015
lhumerus -54.3363 -14.6475 90.2322
lradius 46.2501
lwrist -25.6757
lhand -29.3716 13.514
lfingers 7.12502
lthumb -2.71063 43.4765
rfemur -18.89 -11.7066 20.8199
rtibia 33.8614
rfoot -165.962 10.4801
rtoes -17.2438
lfemur -0.747099 -9.5976 -14.0639
ltibia 30.8587
lfoot -14.1118 -10.1359
ltoes -19.3763
33
root 11.2702 18.018 29.1603 -174.04 -13.4731 179.8
lowerback 3.00779 1.0654 -2.14909
upperback 0.997065 1.34119 1.11992
thorax -0.739519 0.658416 2.30515
lowerneck -11.7262 -1.8888 -8.52415
upperneck 20.3699 -4.65175 13.0158
head 8.75042 -1.92028 5.33581
rclavicle 2.0276e-014 -6.75868e-015
rhumerus -41.7268 -0.487289 -81.6269
rradius 91.9572
rwrist 19.4071
rhand -40.3445 -13.4101
rfingers 7.12502
rthumb -13.2999 -42.9657
lclavicle 2.0276e-014 -6.75868e-015
lhumerus -54.131 -14.324 90.1866
lradius 46.4886
lwrist -25.8361
lhand -29.0003 12.8621
lfingers 7.12502
lthumb -2.35199 42.8289
rfemur -18.7523 -11.2652 21.028
rtibia 33.8445
rfoot -166.201 10.2834
rtoes -17.189
lfemur -0.624828 -9.67879 -13.9205
ltibia 30.9608
lfoot -14.2102 -9.93819
ltoes -19.473
34
root 11.2513 18.0057 29.1166 -173.906 -13.5776 179.332
lowerback 2.56456 0.995962 -2.42069
upperback 1.19141 1.24983 0.921461
thorax -0.288365 0.604342 2.2669
lowerneck -11.7845 -1.89498 -8.40027
upperneck 20.2053 -4.63974 12.9813
head 8.70166 -1.90177 5.2986
rclavicle -5.37216e-014 -3.77691e-015
rhumerus -41.8016 -0.522681 -81.9605
rradius 91.8105
rwrist 18.8032
rhand -40.6548 -13.6242
rfingers 7.12502
rthumb -13.599 -43.16
lclavicle -5.37216e-014 -3.77691e-015
lhumerus -53.7636 -14.5278 90.3565
lradius 46.7154
lwrist -25.5224
lhand -29.111 13.3735
lfingers 7.12502
lthumb -2.45887 43.3391
rfemur -18.5846 -11.7758 20.4256
rtibia 33.8904
rfoot -166.108 10.7702
rtoes -17.0414
lfemur -0.431517 -10.0403 -14.5838
ltibia 30.9806
lfoot -14.4816 -9.67411
ltoes -19.4521
35
root 11.2453 17.9911 29.1003 -173.998 -13.6545 179.192
lowerback 2.86949 0.924977 -2.49083
upperback 1.20529 1.14395 0.808157
thorax -0.437736 0.55256 2.18841
lowerneck -11.7578 -1.83599 -8.13028
upperneck 20.1368 -4.59274 12.9109
head 8.66094 -1.86793 5.22904
rclavicle -3.34952e-014 -2.5842e-015
rhumerus -41.9506 -0.531196 -82.3879
rradius 91.6483
rwrist 18.4165
rhand -40.2279 -14.0034
rfingers 7.12502
rthumb -13.1874 -43.5663
lclavicle -3.34952e-014 -2.5842e-015
lhumerus -53.4701 -14.5514 90.5472
lradius 47.0319
lwrist -24.0736
lhand -28.8539 13.4311
lfingers 7.12502
lthumb -2.21065 43.3994
rfemur -18.4016 -11.7428 20.2451
rtibia 33.9921
rfoot -166.336 10.8506
rtoes -17.0177
lfemur -0.212115 -10.2951 -14.8008
ltibia 30.9631
lfoot -14.5896 -9.50605
ltoes -19.7284
36
root 11.2308 17.9822 29.0784 -173.961 -13.5918 179.071
lowerback 2.85095 0.892242 -2.54719
upperback 1.27253 1.09793 0.824481
thorax -0.357159 0.52665 2.23931
lowerneck -11.744 -1.8206 -8.07893
upperneck 20.0348 -4.48007 12.6225
head 8.60321 -1.82985 5.12873
rclavicle 1.02374e-014 4.57205e-015
rhumerus -42.1377 -0.357018 -82.5374
rradius 91.4747
rwrist 17.9876
rhand -40.3789 -13.3426
rfingers 7.12502
rthumb -13.3331 -42.896
lclavicle 1.02374e-014 4.57205e-015
lhumerus -53.2475 -14.3222 90.8225
lradius 47.4339
lwrist -23.4287
lhand -28.6363 13.2024
lfingers 7.12502
lthumb -2.00041 43.1728
rfemur -18.3895 -11.8267 20.0502
rtibia 34.1168
rfoot -166.419 10.9695
rtoes -16.6171
lfemur -0.0779571 -10.398 -15.0397
ltibia 30.9115
lfoot -14.7042 -9.33609
ltoes -19.7067
37
root 11.221 17.9753 29.0527 -173.802 -13.4182 178.879
lowerback 2.78872 0.891095 -2.69296
upperback 1.27034 1.09478 0.77007
thorax -0.325947 0.524657 2.26629
lowerneck -11.7806 -1.76082 -8.09222
upperneck 20.0308 -4.39197 12.6419
head 8.59876 -1.78555 5.14786
rclavicle -9.98893e-015 -4.57205e-015
rhumerus -42.362 -0.233507 -82.8272
rradius 91.1034
rwrist 18.0568
rhand -39.8558 -13.4346
rfingers 7.12502
rthumb -12.8288 -43.0204
lclavicle -9.98893e-015 -4.57205e-015
lhumerus -52.8783 -14.2105 91.0896
lradius 47.4771
lwrist -23.3165
lhand -28.9143 13.2178
lfingers 7.12502
lthumb -2.26895 43.1854
rfemur -18.5017 -11.8015 19.8099
rtibia 34.2428
rfoot -166.421 11.2304
rtoes -16.6245
lfemur -0.0731874 -10.4386 -15.3476
ltibia 30.9453
lfoot -14.869 -9.1422
ltoes -19.9746
38
root 11.2151 17.9682 29.0353 -173.686 -13.2828 178.991
lowerback 2.79347 0.883018 -2.56041
upperback 1.26562 1.08719 0.799999
thorax -0.331223 0.521273 2.22273
lowerneck -11.7865 -1.74639 -7.99654
upperneck 19.929 -4.32608 12.4737
head 8.55278 -1.75773 5.07675
rclavicle 3.27995e-015 1.98785e-015
rhumerus -42.5085 -0.233486 -83.0805
rradius 90.6859
rwrist 17.8125
rhand -40.5279 -13.7742
rfingers 7.12502
rthumb -13.4766 -43.3182
lclavicle 3.27995e-015 1.98785e-015
lhumerus -52.4452 -14.1376 91.3101
lradius 47.53
lwrist -23.3753
lhand -29.0352 13.2223
lfingers 7.12502
lthumb -2.38574 43.1887
rfemur -18.6772 -11.431 19.9428
rtibia 34.3844
rfoot -166.612 11.1762
rtoes -16.5567
lfemur -0.149811 -10.4723 -15.267
ltibia 30.9907
lfoot -15.0023 -9.01507
ltoes -19.9145
39
root 11.2075 17.9592 29.012 -173.494 -13.2134 179.051
lowerback 2.6649 0.843826 -2.3739
upperback 1.25352 1.04351 0.746104
thorax -0.265017 0.499906 2.06578
lowerneck -11.7427 -1.6776 -7.96188
upperneck 19.8179 -4.24605 12.5653
head 8.49905 -1.71117 5.10856
rclavicle -3.97569e-015 9.93923e-016
rhumerus -42.752 -0.2772 -83.4573
rradius 90.2493
rwrist 18.0644
rhand -40.0445 -13.8439
rfingers 7.12502
rthumb -13.0107 -43.4182
lclavicle -3.97569e-015 9.93923e-016
lhumerus -52.0268 -14.0285 91.4237
lradius 47.7848
lwrist -23.0898
lhand -29.1836 13.218
lfingers 7.12502
lthumb -2.52907 43.1828
rfemur -18.9252 -11.5024 20.0184
rtibia 34.5628
rfoot -166.611 11.393
rtoes -16.4476
lfemur -0.286992 -10.497 -15.2181
ltibia 31.047
lfoot -15.153 -8.97661
ltoes -19.8965
40
root 11.1961 17.9455 28.9889 -173.435 -13.0572 178.985
lowerback 2.73855 0.8054 -2.34464
upperback 1.26645 0.99028 0.683699
thorax -0.288584 0.473359 1.986
lowerneck -11.7124 -1.6027 -7.82259
upperneck 19.7701 -4.13313 12.4402
head 8.45914 -1.65877 5.05136
rclavicle -4.35338e-014 1.41137e-014
rhumerus -42.9723 -0.23987 -83.8259
rradius 89.7725
rwrist 17.8846
rhand -40.0443 -14.5906
rfingers 7.12502
rthumb -13.0105 -44.1649
lclavicle -4.35338e-014 1.41137e-014
lhumerus -51.3135 -13.5247 91.3997
lradius 47.5932
lwrist -23.0565
lhand -29.2618 12.9751
lfingers 7.12502
lthumb -2.60454 42.9389
rfemur -19.0211 -11.4875 19.9073
rtibia 34.7974
rfoot -166.63 11.6184
rtoes -16.3491
lfemur -0.234479 -10.6957 -15.4557
ltibia 31.0946
lfoot -15.4034 -8.61697
ltoes -20.2313
41
root 11.1915 17.9321 28.9691 -173.35 -12.9621 179.014
lowerback 2.80969 0.848567 -2.58198
upperback 1.29411 1.03947 0.90397
thorax -0.310589 0.495818 2.34326
lowerneck -11.7533 -1.66241 -7.94067
upperneck 19.7112 -4.11948 12.2531
head 8.44409 -1.66886 5.00735
rclavicle 1.92821e-014 2.78299e-015
rhumerus -43.211 -0.1208 -83.7521
rradius 89.2648
rwrist 17.7913
rhand -40.1964 -14.2602
rfingers 7.12502
rthumb -13.1571 -43.825
lclavicle 1.92821e-014 2.78299e-015
lhumerus -50.5732 -13.3611 92.0249
lradius 47.4081
lwrist -22.6567
lhand -29.7103 12.9889
lfingers 7.12502
lthumb -3.03768 42.947
rfemur -19.1982 -11.1868 19.9507
rtibia 35.0665
rfoot -166.934 11.6153
rtoes -16.166
lfemur -0.223478 -11.0665 -15.5511
ltibia 31.1532
lfoot -15.6819 -8.25214
ltoes -20.4504
